<?xml version="1.0" encoding="UTF-8"?>
<svg version="1.1" xmlns="http://www.w3.org/2000/svg" width="64" height="64">
<path d="M0 0 C5.00522076 1.60338625 8.52664628 6.43401116 12.01733398 10.16625977 C12.89196289 11.0724707 13.7665918 11.97868164 14.66772461 12.91235352 C16.82170182 15.1487233 18.95767334 17.39974524 21.07983398 19.66625977 C24.43852767 18.22355558 26.47561367 16.42965318 28.94311523 13.75219727 C29.66563477 12.99165039 30.3881543 12.23110352 31.13256836 11.44750977 C32.63751554 9.84500767 34.13238778 8.23298328 35.61694336 6.61157227 C41.16660459 0.82062141 41.16660459 0.82062141 45.93920898 0.01391602 C50.13596573 0.88563042 51.62547662 2.17065988 54.07983398 5.66625977 C54.79446253 8.69473964 55.00131376 9.78971663 54.07983398 12.66625977 C51.2699131 16.35262752 47.95909031 19.44321776 44.57983398 22.60375977 C43.22051758 23.91570313 43.22051758 23.91570313 41.83374023 25.25415039 C39.59737045 27.40812761 37.34634851 29.54409912 35.07983398 31.66625977 C36.52253817 35.02495345 38.31644057 37.06203945 40.99389648 39.52954102 C41.75444336 40.25206055 42.51499023 40.97458008 43.29858398 41.71899414 C44.90108608 43.22394132 46.51311047 44.71881356 48.13452148 46.20336914 C53.9352969 51.76244558 53.9352969 51.76244558 54.69702148 56.52563477 C53.93001271 60.42864145 53.16460084 62.12132711 50.07983398 64.66625977 C46.73499036 65.35076869 45.27099608 65.58180659 42.07983398 64.66625977 C38.32092117 61.90028868 35.24374123 58.58289079 32.07983398 55.16625977 C31.2097168 54.26004883 30.33959961 53.35383789 29.44311523 52.42016602 C27.30285176 50.18582503 25.18346574 47.93503169 23.07983398 45.66625977 C19.72141348 47.10704638 17.70504902 48.89177273 15.25170898 51.58032227 C14.53370117 52.34086914 13.81569336 53.10141602 13.07592773 53.88500977 C11.58186641 55.48560416 10.099954 57.09762806 8.63061523 58.72094727 C2.45739802 65.19127119 2.45739802 65.19127119 -2.31079102 65.31860352 C-5.92016602 64.66625977 -5.92016602 64.66625977 -8.42016602 62.60375977 C-10.4251808 58.67727249 -10.68862244 57.06741929 -9.92016602 52.66625977 C-7.11253379 48.9783658 -3.79924158 45.88913272 -0.42016602 42.72875977 C0.48604492 41.85413086 1.39225586 40.97950195 2.32592773 40.07836914 C4.56229752 37.92439193 6.81331946 35.78842041 9.07983398 33.66625977 C7.6371298 30.30756608 5.8432274 28.27048008 3.16577148 25.80297852 C2.40522461 25.08045898 1.64467773 24.35793945 0.86108398 23.61352539 C-0.74141811 22.10857821 -2.3534425 20.61370597 -3.97485352 19.12915039 C-9.76580437 13.57948916 -9.76580437 13.57948916 -10.57250977 8.80688477 C-9.3965939 3.14558924 -5.97501758 -0.18139428 0 0 Z " fill="#F44236" transform="translate(9.920166015625,-0.666259765625)"/>
</svg>
