<?xml version="1.0" encoding="UTF-8"?>
<svg version="1.1" xmlns="http://www.w3.org/2000/svg" width="64" height="64">
<path d="M0 0 C9.24 0 18.48 0 28 0 C28 9.9 28 19.8 28 30 C23.38 30 18.76 30 14 30 C14 30.99 14 31.98 14 33 C15.32 33 16.64 33 18 33 C18 33.66 18 34.32 18 35 C19.32 35 20.64 35 22 35 C22 35.66 22 36.32 22 37 C23.32 37 24.64 37 26 37 C26.05413245 39.89608593 26.09373641 42.79115195 26.125 45.6875 C26.15013672 46.91243164 26.15013672 46.91243164 26.17578125 48.16210938 C26.18222656 48.95810547 26.18867187 49.75410156 26.1953125 50.57421875 C26.20578613 51.30213623 26.21625977 52.03005371 26.22705078 52.7800293 C26 55 26 55 24 60 C18.72 60 13.44 60 8 60 C-0.34126163 43.76835574 -0.34126163 43.76835574 0.4296875 39.7734375 C0.71199219 38.89558594 0.71199219 38.89558594 1 38 C4.75 36.875 4.75 36.875 7 38 C7.33 35.36 7.66 32.72 8 30 C5.36 30 2.72 30 0 30 C0 20.1 0 10.2 0 0 Z M2 3 C1.90053547 4.76859193 1.86919783 6.54111451 1.8671875 8.3125 C1.86589844 9.38757813 1.86460938 10.46265625 1.86328125 11.5703125 C1.86714844 12.70210937 1.87101562 13.83390625 1.875 15 C1.87113281 16.13179687 1.86726563 17.26359375 1.86328125 18.4296875 C1.86457031 19.50476563 1.86585937 20.57984375 1.8671875 21.6875 C1.86831543 22.68136719 1.86944336 23.67523437 1.87060547 24.69921875 C1.7416567 26.96375226 1.7416567 26.96375226 3 28 C4.66617115 28.04063832 6.33388095 28.042721 8 28 C8 26.68 8 25.36 8 24 C9.98 24 11.96 24 14 24 C14 25.32 14 26.64 14 28 C15.81242052 28.02687279 17.62495233 28.04633715 19.4375 28.0625 C20.44683594 28.07410156 21.45617187 28.08570312 22.49609375 28.09765625 C24.94021067 28.28612676 24.94021067 28.28612676 26 27 C26.09946453 25.23140807 26.13080217 23.45888549 26.1328125 21.6875 C26.13410156 20.61242187 26.13539062 19.53734375 26.13671875 18.4296875 C26.13091797 16.73199219 26.13091797 16.73199219 26.125 15 C26.13080078 13.30230469 26.13080078 13.30230469 26.13671875 11.5703125 C26.13478516 9.95769531 26.13478516 9.95769531 26.1328125 8.3125 C26.13168457 7.31863281 26.13055664 6.32476562 26.12939453 5.30078125 C26.2583433 3.03624774 26.2583433 3.03624774 25 2 C23.37742456 1.9008343 21.75060169 1.86920223 20.125 1.8671875 C19.14015625 1.86589844 18.1553125 1.86460938 17.140625 1.86328125 C15.58601563 1.86908203 15.58601563 1.86908203 14 1.875 C12.96359375 1.87113281 11.9271875 1.86726562 10.859375 1.86328125 C9.87453125 1.86457031 8.8896875 1.86585937 7.875 1.8671875 C6.96492188 1.86831543 6.05484375 1.86944336 5.1171875 1.87060547 C3.0147152 1.76439991 3.0147152 1.76439991 2 3 Z M11 27 C9.78356708 27.99483202 9.78356708 27.99483202 9.88647461 29.94946289 C9.89171143 30.7821167 9.89694824 31.61477051 9.90234375 32.47265625 C9.90556641 33.37177734 9.90878906 34.27089844 9.91210938 35.19726562 C9.92048828 36.14279297 9.92886719 37.08832031 9.9375 38.0625 C9.94201172 39.01189453 9.94652344 39.96128906 9.95117188 40.93945312 C9.9629989 43.29303065 9.97947975 45.64648477 10 48 C9.01 48 8.02 48 7 48 C6.67 46.35 6.34 44.7 6 43 C4.59596758 47.21209727 6.16298908 49.05382839 8 53 C8.66 54.65 9.32 56.3 10 58 C13.96 58 17.92 58 22 58 C24.61281488 52.12116651 24.18328202 46.29268272 24 40 C23.34 40 22.68 40 22 40 C22 41.32 22 42.64 22 44 C21.34 44 20.68 44 20 44 C20 42.02 20 40.04 20 38 C19.34 38 18.68 38 18 38 C18 39.98 18 41.96 18 44 C17.34 44 16.68 44 16 44 C16 41.36 16 38.72 16 36 C15.34 36 14.68 36 14 36 C14 38.64 14 41.28 14 44 C13.34 44 12.68 44 12 44 C12 38.39 12 32.78 12 27 C11.67 27 11.34 27 11 27 Z M4 41 C5 43 5 43 5 43 Z " fill="#000000" transform="translate(34,2)"/>
<path d="M0 0 C9.24 0 18.48 0 28 0 C28 9.9 28 19.8 28 30 C18.76 30 9.52 30 0 30 C0 20.1 0 10.2 0 0 Z M2 3 C1.92851801 4.35243917 1.91600546 5.70834367 1.9375 7.0625 C1.958125 8.361875 1.97875 9.66125 2 11 C2.4021875 10.1028125 2.4021875 10.1028125 2.8125 9.1875 C4.02493496 6.95406717 4.94652273 5.50061801 7 4 C9.65694438 4.16605902 10.76383679 4.78913999 12.75 6.5625 C13.36875 7.2740625 13.36875 7.2740625 14 8 C13.649375 8.556875 13.29875 9.11375 12.9375 9.6875 C11.78154007 12.53886783 12.19032562 14.08517222 13 17 C13.556875 16.649375 14.11375 16.29875 14.6875 15.9375 C17.63159108 14.74394956 19.00185923 15.02560425 22 16 C23.35306847 16.97313077 24.68966212 17.97005222 26 19 C26.02684679 16.35409986 26.04676357 13.70846904 26.0625 11.0625 C26.07087891 10.30775391 26.07925781 9.55300781 26.08789062 8.77539062 C26.09652441 6.85005687 26.05224333 4.92464419 26 3 C24.34605883 1.34605883 22.39684587 1.87000317 20.125 1.8671875 C19.14015625 1.86589844 18.1553125 1.86460938 17.140625 1.86328125 C15.58601563 1.86908203 15.58601563 1.86908203 14 1.875 C12.96359375 1.87113281 11.9271875 1.86726562 10.859375 1.86328125 C9.87453125 1.86457031 8.8896875 1.86585937 7.875 1.8671875 C6.96492187 1.86831543 6.05484375 1.86944336 5.1171875 1.87060547 C3.0147152 1.76439991 3.0147152 1.76439991 2 3 Z M6 9 C4.61727156 12.04998976 4.61727156 12.04998976 6.3125 15.125 C7.6916973 18.07292713 7.6916973 18.07292713 10 19 C9.896875 17.72125 9.79375 16.4425 9.6875 15.125 C9.60048828 14.04605469 9.60048828 14.04605469 9.51171875 12.9453125 C9.12606964 10.60480784 9.12606964 10.60480784 6 9 Z M2 13 C1.97314588 15.31243792 1.95367159 17.6249627 1.9375 19.9375 C1.92589844 21.22527344 1.91429687 22.51304688 1.90234375 23.83984375 C1.63467451 26.86298403 1.63467451 26.86298403 3 28 C4.62257544 28.0991657 6.24939831 28.13079777 7.875 28.1328125 C8.85984375 28.13410156 9.8446875 28.13539062 10.859375 28.13671875 C12.41398438 28.13091797 12.41398438 28.13091797 14 28.125 C15.03640625 28.12886719 16.0728125 28.13273437 17.140625 28.13671875 C18.12546875 28.13542969 19.1103125 28.13414063 20.125 28.1328125 C21.03507812 28.13168457 21.94515625 28.13055664 22.8828125 28.12939453 C24.9852848 28.23560009 24.9852848 28.23560009 26 27 C26.04080783 25.00041636 26.04254356 22.99954746 26 21 C25.154375 21.66 24.30875 22.32 23.4375 23 C19.35150406 25.37730673 17.64424396 25.88080489 13 25 C8.36433329 21.98807862 4.34558103 18.55052176 3 13 C2.67 13 2.34 13 2 13 Z M10 19 C12.72606304 22.28814599 12.72606304 22.28814599 16.75 23.25 C17.4925 23.1675 18.235 23.085 19 23 C18.34 21.68 17.68 20.36 17 19 C14.69 19 12.38 19 10 19 Z " fill="#000000" transform="translate(2,2)"/>
<path d="M0 0 C6.6 0 13.2 0 20 0 C20 4.62 20 9.24 20 14 C13.4 14 6.8 14 0 14 C0 9.38 0 4.76 0 0 Z M5 2 C6.32 3.32 7.64 4.64 9 6 C12.72614153 4.88145414 12.72614153 4.88145414 15 2 C11.7 2 8.4 2 5 2 Z M2 5 C2 6.32 2 7.64 2 9 C2.99 8.67 3.98 8.34 5 8 C4.67 7.01 4.34 6.02 4 5 C3.34 5 2.68 5 2 5 Z M16 5 C16 6.32 16 7.64 16 9 C16.66 9 17.32 9 18 9 C18 7.68 18 6.36 18 5 C17.34 5 16.68 5 16 5 Z M7 9 C6.01 10.485 6.01 10.485 5 12 C8.3 12 11.6 12 15 12 C12.39444452 8.79717837 12.39444452 8.79717837 9.4375 8.625 C8.633125 8.74875 7.82875 8.8725 7 9 Z " fill="#000000" transform="translate(6,41)"/>
<path d="M0 0 C9.24 0 18.48 0 28 0 C28 9.24 28 18.48 28 28 C18.76 28 9.52 28 0 28 C0 18.76 0 9.52 0 0 Z M2 3 C1.9008343 4.62257544 1.86920223 6.24939831 1.8671875 7.875 C1.86589844 8.85984375 1.86460938 9.8446875 1.86328125 10.859375 C1.86714844 11.89578125 1.87101563 12.9321875 1.875 14 C1.87113281 15.03640625 1.86726562 16.0728125 1.86328125 17.140625 C1.86457031 18.12546875 1.86585937 19.1103125 1.8671875 20.125 C1.86831543 21.03507812 1.86944336 21.94515625 1.87060547 22.8828125 C1.76439991 24.9852848 1.76439991 24.9852848 3 26 C4.62257544 26.0991657 6.24939831 26.13079777 7.875 26.1328125 C8.85984375 26.13410156 9.8446875 26.13539062 10.859375 26.13671875 C12.41398438 26.13091797 12.41398438 26.13091797 14 26.125 C15.03640625 26.12886719 16.0728125 26.13273437 17.140625 26.13671875 C18.12546875 26.13542969 19.1103125 26.13414063 20.125 26.1328125 C21.03507812 26.13168457 21.94515625 26.13055664 22.8828125 26.12939453 C24.9852848 26.23560009 24.9852848 26.23560009 26 25 C26.0991657 23.37742456 26.13079777 21.75060169 26.1328125 20.125 C26.13410156 19.14015625 26.13539062 18.1553125 26.13671875 17.140625 C26.13091797 15.58601563 26.13091797 15.58601563 26.125 14 C26.12886719 12.96359375 26.13273437 11.9271875 26.13671875 10.859375 C26.13542969 9.87453125 26.13414063 8.8896875 26.1328125 7.875 C26.13168457 6.96492188 26.13055664 6.05484375 26.12939453 5.1171875 C26.23560009 3.0147152 26.23560009 3.0147152 25 2 C23.37742456 1.9008343 21.75060169 1.86920223 20.125 1.8671875 C19.14015625 1.86589844 18.1553125 1.86460938 17.140625 1.86328125 C15.58601563 1.86908203 15.58601563 1.86908203 14 1.875 C12.96359375 1.87113281 11.9271875 1.86726563 10.859375 1.86328125 C9.87453125 1.86457031 8.8896875 1.86585937 7.875 1.8671875 C6.96492187 1.86831543 6.05484375 1.86944336 5.1171875 1.87060547 C3.0147152 1.76439991 3.0147152 1.76439991 2 3 Z " fill="#000000" transform="translate(2,34)"/>
<path d="M0 0 C2.5 1.5 2.5 1.5 4 4 C4.31584913 6.75841574 4.1862657 9.20601454 4 12 C1.36 12.33 -1.28 12.66 -4 13 C-2.35 13.33 -0.7 13.66 1 14 C1 14.66 1 15.32 1 16 C-6.95467422 16.61189802 -6.95467422 16.61189802 -10.5625 14.5 C-12.60146332 10.95397683 -12.78550518 7.99298467 -12 4 C-9.15871837 -0.73546938 -5.07616558 -0.99858995 0 0 Z M-9 5 C-8 7 -8 7 -8 7 Z M0 5 C0 6.32 0 7.64 0 9 C0.66 8.67 1.32 8.34 2 8 C1.34 7.01 0.68 6.02 0 5 Z M-5 7 C-5 7.66 -5 8.32 -5 9 C-4.34 9 -3.68 9 -3 9 C-3 8.34 -3 7.68 -3 7 C-3.66 7 -4.32 7 -5 7 Z M-9 9 C-8 11 -8 11 -8 11 Z " fill="#000000" transform="translate(52,8)"/>
</svg>
