<?xml version="1.0" encoding="UTF-8"?>
<svg version="1.1" xmlns="http://www.w3.org/2000/svg" width="64" height="64">
<path d="M0 0 C1.19463867 -0.00630432 2.38927734 -0.01260864 3.62011719 -0.019104 C4.91594727 -0.01505554 6.21177734 -0.01100708 7.546875 -0.00683594 C8.88444082 -0.00818272 10.22200617 -0.01012336 11.55957031 -0.01263428 C14.36397966 -0.01558494 17.16826169 -0.01128987 19.97265625 -0.00195312 C23.57092422 0.00944153 27.16889386 0.00288172 30.76715088 -0.00909805 C33.52948258 -0.0163183 36.29174333 -0.014028 39.05407715 -0.00884247 C41.02726433 -0.00685568 43.00045426 -0.01293935 44.97363281 -0.019104 C46.16827148 -0.01279968 47.36291016 -0.00649536 48.59375 0 C50.17687988 0.00238678 50.17687988 0.00238678 51.79199219 0.00482178 C54.296875 0.25878906 54.296875 0.25878906 56.296875 2.25878906 C56.55084229 4.15625 56.55084229 4.15625 56.55566406 6.49316406 C56.56196838 7.3674707 56.56827271 8.24177734 56.57476807 9.14257812 C56.5707196 10.08842773 56.56667114 11.03427734 56.5625 12.00878906 C56.56441345 12.9778418 56.5663269 13.94689453 56.56829834 14.9453125 C56.56966079 16.99642191 56.56596018 19.04753992 56.55761719 21.09863281 C56.54691859 24.24596445 56.55751054 27.39272526 56.5703125 30.54003906 C56.56899092 32.52962366 56.56642855 34.5192079 56.5625 36.50878906 C56.56654846 37.45463867 56.57059692 38.40048828 56.57476807 39.375 C56.56531158 40.68645996 56.56531158 40.68645996 56.55566406 42.02441406 C56.55407288 42.7955957 56.55248169 43.56677734 56.55084229 44.36132812 C56.296875 46.25878906 56.296875 46.25878906 54.296875 48.25878906 C51.79199219 48.51275635 51.79199219 48.51275635 48.59375 48.51757812 C47.39911133 48.52388245 46.20447266 48.53018677 44.97363281 48.53668213 C43.67780273 48.53263367 42.38197266 48.52858521 41.046875 48.52441406 C39.70930918 48.52576085 38.37174383 48.52770149 37.03417969 48.5302124 C34.22977034 48.53316306 31.42548831 48.528868 28.62109375 48.51953125 C25.02282578 48.5081366 21.42485614 48.5146964 17.82659912 48.52667618 C15.06426742 48.53389642 12.30200667 48.53160613 9.53967285 48.52642059 C7.56648567 48.52443381 5.59329574 48.53051748 3.62011719 48.53668213 C2.42547852 48.53037781 1.23083984 48.52407349 0 48.51757812 C-1.05541992 48.51598694 -2.11083984 48.51439575 -3.19824219 48.51275635 C-5.703125 48.25878906 -5.703125 48.25878906 -7.703125 46.25878906 C-7.95709229 44.36132812 -7.95709229 44.36132812 -7.96191406 42.02441406 C-7.96821838 41.15010742 -7.97452271 40.27580078 -7.98101807 39.375 C-7.9769696 38.42915039 -7.97292114 37.48330078 -7.96875 36.50878906 C-7.97066345 35.53973633 -7.9725769 34.57068359 -7.97454834 33.57226562 C-7.97591079 31.52115622 -7.97221018 29.47003821 -7.96386719 27.41894531 C-7.95316859 24.27161367 -7.96376054 21.12485286 -7.9765625 17.97753906 C-7.97524092 15.98795446 -7.97267855 13.99837022 -7.96875 12.00878906 C-7.97279846 11.06293945 -7.97684692 10.11708984 -7.98101807 9.14257812 C-7.97471375 8.26827148 -7.96840942 7.39396484 -7.96191406 6.49316406 C-7.96032288 5.72198242 -7.95873169 4.95080078 -7.95709229 4.15625 C-7.33070845 -0.52363963 -3.85705199 0.00581502 0 0 Z " fill="#F34437" transform="translate(7.703125,7.7412109375)"/>
<path d="M0 0 C5.73707541 3.82471694 11.2095236 7.58795905 16.5625 11.875 C17.50319336 12.62136719 17.50319336 12.62136719 18.46289062 13.3828125 C19.97773215 14.58543478 21.48924136 15.7922527 23 17 C26.22895073 15.51711559 28.90774466 13.67534027 31.73046875 11.5234375 C32.61541016 10.853125 33.50035156 10.1828125 34.41210938 9.4921875 C35.32798828 8.79351562 36.24386719 8.09484375 37.1875 7.375 C39.01270426 5.98485137 40.83944151 4.59671235 42.66796875 3.2109375 C43.47516357 2.59524902 44.2823584 1.97956055 45.11401367 1.34521484 C47 0 47 0 48 0 C48 12.21 48 24.42 48 37 C32.16 37 16.32 37 0 37 C0 24.79 0 12.58 0 0 Z " fill="#EBEEF0" transform="translate(8,19)"/>
<path d="M0 0 C15.18 0 30.36 0 46 0 C42.92978603 3.07021397 40.11037835 5.84114135 36.79296875 8.55078125 C36.04208984 9.16630859 35.29121094 9.78183594 34.51757812 10.41601562 C33.74865234 11.04185547 32.97972656 11.66769531 32.1875 12.3125 C31.00510742 13.28026367 31.00510742 13.28026367 29.79882812 14.26757812 C27.86784327 15.84747483 25.93487133 17.4248674 24 19 C21.3436948 17.74617487 19.05725365 16.3990884 16.7578125 14.57421875 C16.16613281 14.10693359 15.57445312 13.63964844 14.96484375 13.15820312 C14.05412109 12.43020508 14.05412109 12.43020508 13.125 11.6875 C12.52558594 11.21376953 11.92617188 10.74003906 11.30859375 10.25195312 C9.53189095 8.84330915 7.76398533 7.42452933 6 6 C5.41186523 5.52643066 4.82373047 5.05286133 4.21777344 4.56494141 C2.79186299 3.40068511 1.39300288 2.20343521 0 1 C0 0.67 0 0.34 0 0 Z " fill="#ECECED" transform="translate(9,8)"/>
<path d="M0 0 C0 12.21 0 24.42 0 37 C-2.64 35.02 -5.28 33.04 -8 31 C-9.2684375 30.05898438 -10.536875 29.11796875 -11.84375 28.1484375 C-13.06314567 27.22481014 -14.28190112 26.30033692 -15.5 25.375 C-16.44746094 24.67890625 -16.44746094 24.67890625 -17.4140625 23.96875 C-19.21875 22.5859375 -19.21875 22.5859375 -22 20 C-22 16 -22 16 -20.39526367 14.29248047 C-19.66025635 13.73963379 -18.92524902 13.18678711 -18.16796875 12.6171875 C-17.36939453 12.00746094 -16.57082031 11.39773437 -15.74804688 10.76953125 C-14.90306641 10.14433594 -14.05808594 9.51914062 -13.1875 8.875 C-12.35412109 8.24207031 -11.52074219 7.60914063 -10.66210938 6.95703125 C-1.46730693 0 -1.46730693 0 0 0 Z " fill="#CFD7DB" transform="translate(56,19)"/>
</svg>
