<?xml version="1.0" encoding="UTF-8"?>
<svg version="1.1" xmlns="http://www.w3.org/2000/svg" width="64" height="64">
<path d="M0 0 C1.45116211 -0.0309375 1.45116211 -0.0309375 2.93164062 -0.0625 C4.32479492 -0.07023437 4.32479492 -0.07023437 5.74609375 -0.078125 C7.02311157 -0.09214355 7.02311157 -0.09214355 8.32592773 -0.10644531 C10.5625 0.25 10.5625 0.25 12.34301758 1.46948242 C13.93827686 3.79865679 13.92147069 5.25652353 13.890625 8.06640625 C13.88546875 8.99517578 13.8803125 9.92394531 13.875 10.88085938 C13.854375 11.84830078 13.83375 12.81574219 13.8125 13.8125 C13.80734375 14.78380859 13.8021875 15.75511719 13.796875 16.75585938 C13.71698428 23.94103145 13.71698428 23.94103145 12.5625 26.25 C4.3125 26.25 -3.9375 26.25 -12.4375 26.25 C-12.4375 18 -12.4375 9.75 -12.4375 1.25 C-8.67595432 -0.63077284 -4.13926726 0.02197355 0 0 Z " fill="#FEFEFE" transform="translate(14.4375,35.75)"/>
<path d="M0 0 C8.25 0 16.5 0 25 0 C25 8.25 25 16.5 25 25 C21.23845432 26.88077284 16.70176726 26.22802645 12.5625 26.25 C11.59505859 26.270625 10.62761719 26.29125 9.63085938 26.3125 C8.23770508 26.32023437 8.23770508 26.32023437 6.81640625 26.328125 C5.53938843 26.34214355 5.53938843 26.34214355 4.23657227 26.35644531 C2 26 2 26 0.21948242 24.78051758 C-1.37577686 22.45134321 -1.35897069 20.99347647 -1.328125 18.18359375 C-1.32296875 17.25482422 -1.3178125 16.32605469 -1.3125 15.36914062 C-1.2815625 13.91797852 -1.2815625 13.91797852 -1.25 12.4375 C-1.24484375 11.46619141 -1.2396875 10.49488281 -1.234375 9.49414062 C-1.15448428 2.30896855 -1.15448428 2.30896855 0 0 Z " fill="#FEFEFE" transform="translate(37,2)"/>
<path d="M0 0 C8.25 0 16.5 0 25 0 C26.88077284 3.76154568 26.22802645 8.29823274 26.25 12.4375 C26.270625 13.40494141 26.29125 14.37238281 26.3125 15.36914062 C26.31765625 16.29791016 26.3228125 17.22667969 26.328125 18.18359375 C26.34214355 19.46061157 26.34214355 19.46061157 26.35644531 20.76342773 C26 23 26 23 24.78051758 24.78051758 C22.45134321 26.37577686 20.99347647 26.35897069 18.18359375 26.328125 C17.25482422 26.32296875 16.32605469 26.3178125 15.36914062 26.3125 C14.40169922 26.291875 13.43425781 26.27125 12.4375 26.25 C11.46619141 26.24484375 10.49488281 26.2396875 9.49414062 26.234375 C2.30896855 26.15448428 2.30896855 26.15448428 0 25 C0 16.75 0 8.5 0 0 Z " fill="#FEFEFE" transform="translate(2,2)"/>
<path d="M0 0 C2.5 0.125 2.5 0.125 3.5 1.125 C3.54063832 2.79117115 3.542721 4.45888095 3.5 6.125 C4.304375 6.104375 5.10875 6.08375 5.9375 6.0625 C8.5 6.125 8.5 6.125 9.5 7.125 C9.625 9.625 9.625 9.625 9.5 12.125 C8.5 13.125 8.5 13.125 5.9375 13.1875 C5.133125 13.166875 4.32875 13.14625 3.5 13.125 C3.520625 13.929375 3.54125 14.73375 3.5625 15.5625 C3.5 18.125 3.5 18.125 2.5 19.125 C0 19.25 0 19.25 -2.5 19.125 C-3.5 18.125 -3.5 18.125 -3.5625 15.5625 C-3.541875 14.758125 -3.52125 13.95375 -3.5 13.125 C-4.304375 13.145625 -5.10875 13.16625 -5.9375 13.1875 C-8.5 13.125 -8.5 13.125 -9.5 12.125 C-9.625 9.625 -9.625 9.625 -9.5 7.125 C-8.5 6.125 -8.5 6.125 -5.9375 6.0625 C-4.7309375 6.0934375 -4.7309375 6.0934375 -3.5 6.125 C-3.520625 5.320625 -3.54125 4.51625 -3.5625 3.6875 C-3.47911354 0.26865518 -3.40649644 0.17032482 0 0 Z " fill="#FEFEFE" transform="translate(49.5,39.875)"/>
</svg>
