<?xml version="1.0" encoding="UTF-8"?>
<svg version="1.1" xmlns="http://www.w3.org/2000/svg" width="64" height="64">
<path d="M0 0 C0.62132812 0.391875 1.24265625 0.78375 1.8828125 1.1875 C2.50414062 1.538125 3.12546875 1.88875 3.765625 2.25 C10.62521869 6.52611035 14.82446272 13.4804369 16.8828125 21.1875 C17.67485162 30.07491567 17.78212394 38.41951278 12.8828125 46.1875 C12.5321875 46.80882812 12.1815625 47.43015625 11.8203125 48.0703125 C7.5434253 54.93115239 0.59019208 59.12655235 -7.1171875 61.1875 C-9.75366239 61.42467243 -12.23464389 61.56659171 -14.8671875 61.5625 C-15.57456055 61.56596436 -16.28193359 61.56942871 -17.01074219 61.57299805 C-21.30884884 61.49691233 -24.52344882 60.89067016 -28.3671875 59 C-33.58658567 56.44374185 -37.45886864 57.73582519 -42.84375 59.390625 C-43.96910156 59.78507812 -43.96910156 59.78507812 -45.1171875 60.1875 C-44.9728125 59.59582031 -44.8284375 59.00414062 -44.6796875 58.39453125 C-42.65118834 50.17891602 -42.65118834 50.17891602 -45.1171875 42.375 C-48.4825918 35.19947726 -48.38033903 26.00368737 -46.38671875 18.40234375 C-45.4534783 16.1816124 -44.40104241 14.22308575 -43.1171875 12.1875 C-42.7665625 11.56617188 -42.4159375 10.94484375 -42.0546875 10.3046875 C-33.73233229 -3.04575731 -13.65305461 -7.47543675 0 0 Z " fill="#4CAF50" transform="translate(47.1171875,2.8125)"/>
<path d="M0 0 C2.9549163 6.02802925 3.13221073 8.60336781 1 15 C2.28666131 17.07460642 2.28666131 17.07460642 4.1875 19.0625 C4.79980469 19.75472656 5.41210938 20.44695313 6.04296875 21.16015625 C7.97359137 22.97517273 9.54082293 24.04168151 12 25 C14.98970481 24.64827002 15.82711465 24.17288535 18 22 C21.75561867 22.32657554 24.73602552 23.1169378 28 25 C27.64 31.36 27.64 31.36 25 34 C19.38663357 35.87112214 14.17249959 34.76066486 8.875 32.3125 C0.66833864 27.75324369 -4.80815758 21.38368484 -9 13 C-9.40990496 8.91671599 -9.53877803 5.22721663 -7.875 1.4375 C-5.23378281 -0.58743318 -3.23421217 -0.28748553 0 0 Z " fill="#F4F7F4" transform="translate(23,15)"/>
</svg>
